<svg height="32" viewBox="0 0 27 32" width="27" xmlns="http://www.w3.org/2000/svg" xmlns:xlink="http://www.w3.org/1999/xlink"><filter id="a" height="200%" width="200%" x="-50%" y="-50%"><feOffset dx="0" dy="2" in="SourceAlpha" result="shadowOffsetOuter1"/><feGaussianBlur in="shadowOffsetOuter1" result="shadowBlurOuter1" stdDeviation="2"/><feColorMatrix in="shadowBlurOuter1" result="shadowMatrixOuter1" type="matrix" values="0 0 0 0 0   0 0 0 0 0   0 0 0 0 0  0 0 0 0.05 0"/><feMerge><feMergeNode in="shadowMatrixOuter1"/><feMergeNode in="SourceGraphic"/></feMerge></filter><g fill-rule="evenodd" filter="url(#a)" transform="translate(-10 -15)"><g transform="matrix(-1 0 0 1 33.2 17)"><path d="m1.54193617 6.86168315.89377541.69224549 1.43974275 1.11502381c.19377576-.9691864.75476425-1.80232696 1.53070603-2.34407704l-2.77163538-2.14654642.85832269-1.1390971c.35079294-.4657697.26290783-1.1318845-.1964812-1.48773853l-2.08945613 2.77134805c-.30936897.41052806-.41740571.91207734-.34295553 1.38491771.06959864.44259437.29891994.86031136.67798136 1.15392403z"/><path d="m10.3270551 16.5512797c-3.09136106-1.620521-5.84424444-2.0787465-6.53864608-.9657806-.57031785.9139455.39996004 2.6472442 2.29927896 4.422352l-1.80294423 2.9323426h-1.22796146c-.56481369.0157023-1.018232.483553-1.018232 1.0598063h1.59461437 2.11408657l.65157856-1.0598063 1.04482087-1.6994344.4083563-.6638448c-.14404831-.2391276-.22773504-.5194967-.22773504-.8201091 0-.8707885.69626733-1.5768453 1.55533698-1.5768453.04767365 0 .09422858.0045655.14078353.0087036z"/><path d="m18.9736295 6.45285797c-.1614017-.7877365-.8495532-1.37990418-1.6744749-1.37990418-.2354787 0-.4597623.04843088-.6637067.13554992-.6149153.26289418-1.0467814.87951405-1.0467814 1.59869485v8.22399344c0 .5859009-.4685313 1.0612234-1.0467813 1.0612234-.42095 0-.7830313-.252653-.9491927-.6159567-.0147407-.032256-.0279886-.0655761-.0395568-.0994394l-.971957-2.4423351 1.8866295-6.45382737c.0013063-.00413819.0030802-.0084895.0043865-.01286419.0229499-.07226816.0431025-.14453635.0627876-.21699371.6871241-2.52890928-.5494207-5.16886976-2.8615732-6.25099893l-4.44368582 1.5664388c-.5455018.18889973-.83714414.78920237-.65363133 1.34256389l1.12533612-.407974c.44483491-.16130242.93426529.07356872 1.09333429.52439296.15907.45082398-.07258402.9472412-.51732561 1.10844931l-1.16106827.42090963c.20273238.54390208.80001337.82200165 1.33954342.62120717l1.22618859-.45661773c.08704483.5002248-.19023002 1.00598296-.67788856 1.18258565l-2.34900538.86664939c-.99098888.4294464-1.6938811 1.40714672-1.74258114 2.55662485-.00177287.04218749-.00466441.0841868-.00466441.12677613 0 .0260844.00261164.05164795.0033581.07756552-.00466442-.01194152-.0076503-.01986389-.0076503-.01986389h-3.6665305v-1.43346659c0-.4005961-.48859061-.74897765-.79824003-.9296473l-.24854034-.13167166v3.51294657c.01324805.9888621.8068234 1.786554 1.78531092 1.786554h4.13562313c.36627917 0 .7222964.0441742 1.06338627.1270609-.0166641-.0040914-.03307337-.0101929-.0496562-.0150167.01786608.0053203.03575524.0106181.0539484.0150167.01063517.0026245.02136466.0054627.03209412.0082052 1.84315368.4624593 3.24296643 2.0645823 3.42937173 4.026888.0031725.0342427.0052243.0688395.0077436.1034607.0083035.1136983.0138077.2279643.0138077.3437459 0 1.1046407-.3835392 2.1182861-1.02261645 2.9123128-.04683487.0582459-.09506935.1154012-.14460916.1711874-.1305206.1886149-.20786333.4179057-.20786333.6659261 0 .6418986.51340765 1.1623433 1.14660744 1.1623433.2278284 0 .4399839-.0673503.6183657-.1832967l2.3214834-1.3891724c.3202851.1816162.5369174.5281759.5369174.9266195 0 .2633199-.0946028.5045288-.2513391.6899292l-.9633746 1.0605611h-1.1751548-.0005598-.0569112c-.564627.0157023-1.0180453.483553-1.0180453 1.0598063h2.0931884.0003733 1.2637859c0-1.0004028.7998268-1.8112427 1.7864311-1.8112427v-3.0895548c-.818671-.1653463-1.4358238-.8972738-1.4358238-1.7758647 0-.0440552.0020508-.0877808.005131-.1312683.1046782.0158671.2106626.0268392.3197252.0268392.4069557 0 .7861114-.1163473 1.1109676-.3149658.6265759-.3829326 1.0467814-1.0772115 1.0467814-1.8727509v-8.22399341c0-.38319142.3063831-.69371238.6842305-.69371238.3645073 0 .6616559.28923798.6821818.65381827-.4700262.32622325-.7786488.87383829-.7786488 1.49499816 0 1.0003072.7997325 1.81114806 1.7864312 1.81114806v-3.26625211c-.0000001-.1214559-.0125014-.23979035-.0360131-.35434062z"/></g></g></svg>