<svg height="27" viewBox="0 0 27 27" width="27" xmlns="http://www.w3.org/2000/svg" xmlns:xlink="http://www.w3.org/1999/xlink"><filter id="a" height="200%" width="200%" x="-50%" y="-50%"><feOffset dx="0" dy="2" in="SourceAlpha" result="shadowOffsetOuter1"/><feGaussianBlur in="shadowOffsetOuter1" result="shadowBlurOuter1" stdDeviation="2"/><feColorMatrix in="shadowBlurOuter1" result="shadowMatrixOuter1" type="matrix" values="0 0 0 0 0   0 0 0 0 0   0 0 0 0 0  0 0 0 0.05 0"/><feMerge><feMergeNode in="shadowMatrixOuter1"/><feMergeNode in="SourceGraphic"/></feMerge></filter><g fill-rule="evenodd" filter="url(#a)" transform="translate(-93 -18)"><path d="m20 2v2h-5l-3.47 5h2.47v2h-1.54l3.71 8h-2.2l-.93-2h-8.66l-1.03 2h-2.25l4.13-8h-.23c-.45 0-.83-.3-.96-.7l-3.17-9.46.95-.34c.52-.16 1.09.13 1.26.65l2.64 7.85h4.38l3.47-5h-3.57v-2zm-12.5 9-2.08 4h6.69l-1.85-4z" transform="translate(96 20)"/></g></svg>